<mxfile host="Electron" agent="Mozilla/5.0 (Windows NT 10.0; Win64; x64) AppleWebKit/537.36 (KHTML, like Gecko) draw.io/24.7.8 Chrome/128.0.6613.36 Electron/32.0.1 Safari/537.36" version="24.7.8">
  <diagram name="Page-1" id="S8SGscc1CqsHTiY-1IIN">
    <mxGraphModel dx="915" dy="823" grid="1" gridSize="10" guides="1" tooltips="1" connect="1" arrows="1" fold="1" page="1" pageScale="1" pageWidth="850" pageHeight="1100" math="0" shadow="0">
      <root>
        <mxCell id="0" />
        <mxCell id="1" parent="0" />
        <mxCell id="esj_B_o37f_a64gsE9bi-4" value="&lt;b style=&quot;font-size: 14px;&quot;&gt;STL Container&lt;/b&gt;&lt;div style=&quot;font-size: 14px;&quot;&gt;&lt;br&gt;&lt;/div&gt;&lt;div style=&quot;font-size: 14px;&quot;&gt;default constructor&lt;/div&gt;&lt;div style=&quot;font-size: 14px;&quot;&gt;copy constructor&lt;/div&gt;&lt;div style=&quot;font-size: 14px;&quot;&gt;operator =, ==, !=,&amp;gt;&lt;/div&gt;&lt;div style=&quot;font-size: 14px;&quot;&gt;,&amp;gt;=,&amp;lt;,&amp;lt;=&lt;/div&gt;&lt;div style=&quot;font-size: 14px;&quot;&gt;empty()&lt;/div&gt;&lt;div style=&quot;font-size: 14px;&quot;&gt;size()&lt;/div&gt;&lt;div style=&quot;font-size: 14px;&quot;&gt;max_size()&lt;/div&gt;&lt;div style=&quot;font-size: 14px;&quot;&gt;swap()&lt;/div&gt;" style="rounded=0;whiteSpace=wrap;html=1;verticalAlign=top;fontSize=14;" parent="1" vertex="1">
          <mxGeometry x="295" y="90" width="140" height="180" as="geometry" />
        </mxCell>
        <mxCell id="esj_B_o37f_a64gsE9bi-5" value="&lt;b&gt;Adaptor&lt;/b&gt;&lt;div style=&quot;font-size: 14px;&quot;&gt;push()&lt;/div&gt;&lt;div style=&quot;font-size: 14px;&quot;&gt;pop()&lt;/div&gt;" style="rounded=0;whiteSpace=wrap;html=1;verticalAlign=top;fontSize=14;" parent="1" vertex="1">
          <mxGeometry x="520" y="140" width="130" height="70" as="geometry" />
        </mxCell>
        <mxCell id="esj_B_o37f_a64gsE9bi-6" value="&lt;b style=&quot;font-size: 14px;&quot;&gt;First-class Container&lt;/b&gt;&lt;div style=&quot;font-size: 14px;&quot;&gt;&lt;br&gt;&lt;/div&gt;&lt;div style=&quot;font-size: 14px;&quot;&gt;begin(), end()&lt;/div&gt;&lt;div style=&quot;font-size: 14px;&quot;&gt;rbegin(),rend()&lt;/div&gt;&lt;div style=&quot;font-size: 14px;&quot;&gt;insert()/emplace()&lt;/div&gt;&lt;div style=&quot;font-size: 14px;&quot;&gt;erase()&lt;/div&gt;&lt;div style=&quot;font-size: 14px;&quot;&gt;clear()&lt;/div&gt;" style="rounded=0;whiteSpace=wrap;html=1;verticalAlign=top;fontSize=14;" parent="1" vertex="1">
          <mxGeometry x="80" y="160" width="150" height="150" as="geometry" />
        </mxCell>
        <mxCell id="esj_B_o37f_a64gsE9bi-7" value="&lt;b&gt;Sequenced&lt;/b&gt;&lt;br&gt;&lt;div style=&quot;font-size: 14px;&quot;&gt;&lt;br&gt;&lt;/div&gt;&lt;div style=&quot;font-size: 14px;&quot;&gt;front(), back()&lt;/div&gt;&lt;div style=&quot;font-size: 14px;&quot;&gt;push_back()&lt;span style=&quot;background-color: initial;&quot;&gt;/emplace_back()&lt;/span&gt;&lt;/div&gt;&lt;div style=&quot;font-size: 14px;&quot;&gt;pop_back()&lt;/div&gt;&lt;div style=&quot;font-size: 14px;&quot;&gt;resize()&lt;/div&gt;" style="rounded=0;whiteSpace=wrap;html=1;verticalAlign=top;fontSize=14;" parent="1" vertex="1">
          <mxGeometry x="10" y="360" width="190" height="140" as="geometry" />
        </mxCell>
        <mxCell id="esj_B_o37f_a64gsE9bi-8" value="&lt;b&gt;Associative&lt;/b&gt;&lt;br&gt;&lt;div style=&quot;font-size: 14px;&quot;&gt;&lt;br&gt;&lt;/div&gt;&lt;div style=&quot;font-size: 14px;&quot;&gt;&lt;div&gt;count()&lt;/div&gt;&lt;div&gt;contains() (c++20)&lt;/div&gt;&lt;/div&gt;&lt;div style=&quot;font-size: 14px;&quot;&gt;equal_range()&lt;/div&gt;&lt;div style=&quot;font-size: 14px;&quot;&gt;find()&lt;/div&gt;&lt;div style=&quot;font-size: 14px;&quot;&gt;emplace_hint()&lt;br&gt;&lt;/div&gt;&lt;div style=&quot;font-size: 14px;&quot;&gt;extract(c++17)&lt;/div&gt;&lt;div style=&quot;font-size: 14px;&quot;&gt;merge(c++17)&lt;/div&gt;&lt;div style=&quot;font-size: 14px;&quot;&gt;&lt;br&gt;&lt;/div&gt;" style="rounded=0;whiteSpace=wrap;html=1;verticalAlign=top;fontSize=14;" parent="1" vertex="1">
          <mxGeometry x="497" y="340" width="130" height="170" as="geometry" />
        </mxCell>
        <mxCell id="esj_B_o37f_a64gsE9bi-9" value="&lt;b&gt;set&lt;/b&gt;&lt;div&gt;&lt;b&gt;multiset&lt;/b&gt;&lt;/div&gt;&lt;div&gt;&lt;b&gt;multimap&lt;/b&gt;&lt;/div&gt;" style="text;html=1;align=center;verticalAlign=middle;whiteSpace=wrap;rounded=0;fontSize=14;" parent="1" vertex="1">
          <mxGeometry x="267" y="550" width="80" height="70" as="geometry" />
        </mxCell>
        <mxCell id="esj_B_o37f_a64gsE9bi-11" value="&lt;b&gt;map&lt;/b&gt;&lt;div style=&quot;font-size: 14px;&quot;&gt;operator[]()&lt;/div&gt;&lt;div style=&quot;font-size: 14px;&quot;&gt;insert_or_assign(C++17)&lt;/div&gt;&lt;div style=&quot;font-size: 14px;&quot;&gt;try_emplace(C++17)&lt;/div&gt;" style="text;html=1;align=center;verticalAlign=middle;whiteSpace=wrap;rounded=0;fontSize=14;" parent="1" vertex="1">
          <mxGeometry x="341" y="562.5" width="162" height="70" as="geometry" />
        </mxCell>
        <mxCell id="esj_B_o37f_a64gsE9bi-13" value="&lt;b&gt;list&lt;/b&gt;&lt;br&gt;&lt;div style=&quot;font-size: 14px;&quot;&gt;splice()&lt;/div&gt;&lt;div style=&quot;font-size: 14px;&quot;&gt;push_front()/&lt;/div&gt;&lt;div style=&quot;font-size: 14px;&quot;&gt;emplace_front()&lt;/div&gt;&lt;div style=&quot;font-size: 14px;&quot;&gt;pop_front()&lt;/div&gt;&lt;div style=&quot;font-size: 14px;&quot;&gt;remove()&lt;/div&gt;&lt;div style=&quot;font-size: 14px;&quot;&gt;unique()&lt;/div&gt;&lt;div style=&quot;font-size: 14px;&quot;&gt;merge()&lt;/div&gt;&lt;div style=&quot;font-size: 14px;&quot;&gt;reverse()&lt;/div&gt;&lt;div style=&quot;font-size: 14px;&quot;&gt;sort()&lt;/div&gt;" style="text;html=1;align=center;verticalAlign=middle;whiteSpace=wrap;rounded=0;fontSize=14;" parent="1" vertex="1">
          <mxGeometry x="220" y="370" width="85" height="170" as="geometry" />
        </mxCell>
        <mxCell id="esj_B_o37f_a64gsE9bi-14" value="&lt;b&gt;deque&lt;/b&gt;&lt;br&gt;&lt;div style=&quot;font-size: 14px;&quot;&gt;operater[]()&lt;/div&gt;&lt;div style=&quot;font-size: 14px;&quot;&gt;push_front()&lt;/div&gt;&lt;div style=&quot;font-size: 14px;&quot;&gt;pop_front()&lt;/div&gt;" style="text;html=1;align=center;verticalAlign=middle;whiteSpace=wrap;rounded=0;fontSize=14;" parent="1" vertex="1">
          <mxGeometry x="160" y="540" width="85" height="60" as="geometry" />
        </mxCell>
        <mxCell id="esj_B_o37f_a64gsE9bi-15" value="&lt;b&gt;vector&lt;/b&gt;&lt;br&gt;&lt;div style=&quot;font-size: 14px;&quot;&gt;operater[]()&lt;/div&gt;&lt;div style=&quot;font-size: 14px;&quot;&gt;reserve()&lt;/div&gt;&lt;div style=&quot;font-size: 14px;&quot;&gt;capacity()&lt;/div&gt;" style="text;html=1;align=center;verticalAlign=middle;whiteSpace=wrap;rounded=0;fontSize=14;" parent="1" vertex="1">
          <mxGeometry x="40" y="530" width="85" height="80" as="geometry" />
        </mxCell>
        <mxCell id="esj_B_o37f_a64gsE9bi-16" value="&lt;b&gt;stack&lt;/b&gt;&lt;div style=&quot;font-size: 14px;&quot;&gt;top()&lt;/div&gt;" style="text;html=1;align=center;verticalAlign=middle;whiteSpace=wrap;rounded=0;fontSize=14;" parent="1" vertex="1">
          <mxGeometry x="435" y="251" width="85" height="30" as="geometry" />
        </mxCell>
        <mxCell id="esj_B_o37f_a64gsE9bi-17" value="&lt;b&gt;queue&lt;/b&gt;&lt;div&gt;front()&lt;/div&gt;&lt;div&gt;back()&lt;/div&gt;" style="text;html=1;align=center;verticalAlign=middle;whiteSpace=wrap;rounded=0;fontSize=14;" parent="1" vertex="1">
          <mxGeometry x="510" y="239" width="85" height="50" as="geometry" />
        </mxCell>
        <mxCell id="esj_B_o37f_a64gsE9bi-18" value="&lt;b&gt;priority_queue&lt;/b&gt;&lt;br&gt;&lt;div style=&quot;font-size: 14px;&quot;&gt;top()&lt;/div&gt;" style="text;html=1;align=center;verticalAlign=middle;whiteSpace=wrap;rounded=0;fontSize=14;" parent="1" vertex="1">
          <mxGeometry x="594" y="249" width="85" height="30" as="geometry" />
        </mxCell>
        <mxCell id="esj_B_o37f_a64gsE9bi-19" value="" style="edgeStyle=segmentEdgeStyle;endArrow=classic;html=1;curved=0;rounded=0;endSize=8;startSize=8;" parent="1" target="esj_B_o37f_a64gsE9bi-5" edge="1">
          <mxGeometry width="50" height="50" relative="1" as="geometry">
            <mxPoint x="440" y="110" as="sourcePoint" />
            <mxPoint x="580" y="50" as="targetPoint" />
            <Array as="points">
              <mxPoint x="434" y="110" />
              <mxPoint x="585" y="110" />
            </Array>
          </mxGeometry>
        </mxCell>
        <mxCell id="esj_B_o37f_a64gsE9bi-20" value="" style="edgeStyle=segmentEdgeStyle;endArrow=classic;html=1;curved=0;rounded=0;endSize=8;startSize=8;exitX=0;exitY=0.5;exitDx=0;exitDy=0;" parent="1" source="esj_B_o37f_a64gsE9bi-5" edge="1">
          <mxGeometry width="50" height="50" relative="1" as="geometry">
            <mxPoint x="452" y="155" as="sourcePoint" />
            <mxPoint x="480" y="250" as="targetPoint" />
          </mxGeometry>
        </mxCell>
        <mxCell id="esj_B_o37f_a64gsE9bi-21" value="" style="edgeStyle=segmentEdgeStyle;endArrow=classic;html=1;curved=0;rounded=0;endSize=8;startSize=8;entryX=0.435;entryY=0.08;entryDx=0;entryDy=0;entryPerimeter=0;" parent="1" target="esj_B_o37f_a64gsE9bi-17" edge="1">
          <mxGeometry width="50" height="50" relative="1" as="geometry">
            <mxPoint x="547" y="211" as="sourcePoint" />
            <mxPoint x="610" y="140" as="targetPoint" />
          </mxGeometry>
        </mxCell>
        <mxCell id="esj_B_o37f_a64gsE9bi-22" value="" style="edgeStyle=segmentEdgeStyle;endArrow=classic;html=1;curved=0;rounded=0;endSize=8;startSize=8;" parent="1" edge="1">
          <mxGeometry width="50" height="50" relative="1" as="geometry">
            <mxPoint x="629" y="210" as="sourcePoint" />
            <mxPoint x="628" y="241" as="targetPoint" />
          </mxGeometry>
        </mxCell>
        <mxCell id="esj_B_o37f_a64gsE9bi-24" value="" style="edgeStyle=segmentEdgeStyle;endArrow=classic;html=1;curved=0;rounded=0;endSize=8;startSize=8;exitX=0;exitY=0.278;exitDx=0;exitDy=0;exitPerimeter=0;" parent="1" source="esj_B_o37f_a64gsE9bi-4" edge="1">
          <mxGeometry width="50" height="50" relative="1" as="geometry">
            <mxPoint x="452" y="155" as="sourcePoint" />
            <mxPoint x="160" y="160" as="targetPoint" />
            <Array as="points">
              <mxPoint x="295" y="110" />
              <mxPoint x="160" y="110" />
              <mxPoint x="160" y="160" />
            </Array>
          </mxGeometry>
        </mxCell>
        <mxCell id="esj_B_o37f_a64gsE9bi-30" value="" style="endArrow=classic;html=1;rounded=0;exitX=1.007;exitY=0.908;exitDx=0;exitDy=0;exitPerimeter=0;" parent="1" edge="1">
          <mxGeometry width="50" height="50" relative="1" as="geometry">
            <mxPoint x="407.45000000000005" y="532.5000000000001" as="sourcePoint" />
            <mxPoint x="407" y="567" as="targetPoint" />
          </mxGeometry>
        </mxCell>
        <mxCell id="esj_B_o37f_a64gsE9bi-32" value="" style="endArrow=classic;html=1;rounded=0;exitX=1;exitY=0.25;exitDx=0;exitDy=0;" parent="1" edge="1">
          <mxGeometry width="50" height="50" relative="1" as="geometry">
            <mxPoint x="200" y="380" as="sourcePoint" />
            <mxPoint x="230" y="380" as="targetPoint" />
          </mxGeometry>
        </mxCell>
        <mxCell id="esj_B_o37f_a64gsE9bi-33" value="" style="endArrow=classic;html=1;rounded=0;exitX=1;exitY=0.25;exitDx=0;exitDy=0;entryX=0.471;entryY=0.017;entryDx=0;entryDy=0;entryPerimeter=0;" parent="1" target="esj_B_o37f_a64gsE9bi-15" edge="1">
          <mxGeometry width="50" height="50" relative="1" as="geometry">
            <mxPoint x="80" y="500" as="sourcePoint" />
            <mxPoint x="81.4799999999999" y="537" as="targetPoint" />
          </mxGeometry>
        </mxCell>
        <mxCell id="esj_B_o37f_a64gsE9bi-35" value="" style="edgeStyle=segmentEdgeStyle;endArrow=classic;html=1;curved=0;rounded=0;endSize=8;startSize=8;entryX=0.473;entryY=-0.017;entryDx=0;entryDy=0;entryPerimeter=0;" parent="1" target="esj_B_o37f_a64gsE9bi-14" edge="1">
          <mxGeometry width="50" height="50" relative="1" as="geometry">
            <mxPoint x="160" y="500" as="sourcePoint" />
            <mxPoint x="210" y="450" as="targetPoint" />
            <Array as="points">
              <mxPoint x="160" y="520" />
              <mxPoint x="200" y="520" />
            </Array>
          </mxGeometry>
        </mxCell>
        <mxCell id="nb58pDb21OPrYsn2N5yx-1" value="" style="endArrow=classic;html=1;rounded=0;exitX=0.175;exitY=1.012;exitDx=0;exitDy=0;exitPerimeter=0;" parent="1" target="esj_B_o37f_a64gsE9bi-7" edge="1" source="esj_B_o37f_a64gsE9bi-6">
          <mxGeometry width="50" height="50" relative="1" as="geometry">
            <mxPoint x="121" y="311" as="sourcePoint" />
            <mxPoint x="90" y="260" as="targetPoint" />
          </mxGeometry>
        </mxCell>
        <mxCell id="nb58pDb21OPrYsn2N5yx-2" value="" style="edgeStyle=segmentEdgeStyle;endArrow=classic;html=1;curved=0;rounded=0;endSize=8;startSize=8;exitX=0.729;exitY=0.997;exitDx=0;exitDy=0;exitPerimeter=0;" parent="1" source="esj_B_o37f_a64gsE9bi-6" edge="1" target="esj_B_o37f_a64gsE9bi-8">
          <mxGeometry width="50" height="50" relative="1" as="geometry">
            <mxPoint x="435" y="315" as="sourcePoint" />
            <mxPoint x="573" y="371" as="targetPoint" />
            <Array as="points">
              <mxPoint x="189" y="312" />
              <mxPoint x="189" y="320" />
              <mxPoint x="562" y="320" />
            </Array>
          </mxGeometry>
        </mxCell>
        <mxCell id="fMIuDNtwgzvvr6yJABfo-1" value="&lt;b&gt;Ordered Associative&lt;/b&gt;&lt;br&gt;&lt;div style=&quot;font-size: 14px;&quot;&gt;&lt;br&gt;&lt;/div&gt;&lt;div style=&quot;font-size: 14px;&quot;&gt;key_comp()&lt;/div&gt;&lt;div style=&quot;font-size: 14px;&quot;&gt;value_comp()&lt;/div&gt;&lt;div style=&quot;font-size: 14px;&quot;&gt;lower_bound()&lt;/div&gt;&lt;div style=&quot;font-size: 14px;&quot;&gt;upper_bound()&lt;/div&gt;&lt;div style=&quot;font-size: 14px;&quot;&gt;&lt;br&gt;&lt;/div&gt;" style="rounded=0;whiteSpace=wrap;html=1;verticalAlign=top;fontSize=14;" vertex="1" parent="1">
          <mxGeometry x="337" y="407.5" width="130" height="125" as="geometry" />
        </mxCell>
        <mxCell id="fMIuDNtwgzvvr6yJABfo-2" value="&lt;b&gt;Unordered Associative&lt;/b&gt;&lt;br&gt;&lt;div style=&quot;font-size: 14px;&quot;&gt;&lt;br&gt;&lt;/div&gt;&lt;div style=&quot;font-size: 14px;&quot;&gt;reserve&lt;/div&gt;&lt;div style=&quot;font-size: 14px;&quot;&gt;rehash&lt;/div&gt;&lt;div style=&quot;font-size: 14px;&quot;&gt;bucket_count&lt;/div&gt;&lt;div style=&quot;font-size: 14px;&quot;&gt;bucket_size&lt;/div&gt;" style="rounded=0;whiteSpace=wrap;html=1;verticalAlign=top;fontSize=14;" vertex="1" parent="1">
          <mxGeometry x="657" y="400" width="150" height="140" as="geometry" />
        </mxCell>
        <mxCell id="fMIuDNtwgzvvr6yJABfo-3" value="" style="edgeStyle=segmentEdgeStyle;endArrow=classic;html=1;curved=0;rounded=0;endSize=8;startSize=8;entryX=0.5;entryY=0;entryDx=0;entryDy=0;" edge="1" parent="1" target="fMIuDNtwgzvvr6yJABfo-1">
          <mxGeometry width="50" height="50" relative="1" as="geometry">
            <mxPoint x="497" y="360" as="sourcePoint" />
            <mxPoint x="467" y="435" as="targetPoint" />
          </mxGeometry>
        </mxCell>
        <mxCell id="fMIuDNtwgzvvr6yJABfo-4" value="" style="edgeStyle=segmentEdgeStyle;endArrow=classic;html=1;curved=0;rounded=0;endSize=8;startSize=8;entryX=0.5;entryY=0;entryDx=0;entryDy=0;exitX=1.007;exitY=0.123;exitDx=0;exitDy=0;exitPerimeter=0;" edge="1" parent="1" source="esj_B_o37f_a64gsE9bi-8" target="fMIuDNtwgzvvr6yJABfo-2">
          <mxGeometry width="50" height="50" relative="1" as="geometry">
            <mxPoint x="643" y="360" as="sourcePoint" />
            <mxPoint x="788" y="390" as="targetPoint" />
            <Array as="points">
              <mxPoint x="732" y="361" />
            </Array>
          </mxGeometry>
        </mxCell>
        <mxCell id="fMIuDNtwgzvvr6yJABfo-5" value="&lt;b&gt;unordered_set&lt;/b&gt;&lt;div&gt;&lt;b&gt;unordered_multiset&lt;/b&gt;&lt;/div&gt;&lt;div&gt;&lt;b&gt;unordered_multimap&lt;/b&gt;&lt;/div&gt;" style="text;html=1;align=center;verticalAlign=middle;whiteSpace=wrap;rounded=0;fontSize=14;" vertex="1" parent="1">
          <mxGeometry x="527" y="562.5" width="150" height="70" as="geometry" />
        </mxCell>
        <mxCell id="fMIuDNtwgzvvr6yJABfo-6" value="&lt;b&gt;unordered_map&lt;/b&gt;&lt;div style=&quot;font-size: 14px;&quot;&gt;operator[]()&lt;/div&gt;&lt;div style=&quot;font-size: 14px;&quot;&gt;insert_or_assign(C++17)&lt;/div&gt;&lt;div style=&quot;font-size: 14px;&quot;&gt;try_emplace(C++17)&lt;/div&gt;" style="text;html=1;align=center;verticalAlign=middle;whiteSpace=wrap;rounded=0;fontSize=14;" vertex="1" parent="1">
          <mxGeometry x="676" y="570" width="162" height="70" as="geometry" />
        </mxCell>
        <mxCell id="fMIuDNtwgzvvr6yJABfo-8" value="" style="endArrow=classic;html=1;rounded=0;exitX=1.007;exitY=0.908;exitDx=0;exitDy=0;exitPerimeter=0;" edge="1" parent="1">
          <mxGeometry width="50" height="50" relative="1" as="geometry">
            <mxPoint x="742.45" y="540.0000000000001" as="sourcePoint" />
            <mxPoint x="743.5" y="573" as="targetPoint" />
          </mxGeometry>
        </mxCell>
        <mxCell id="fMIuDNtwgzvvr6yJABfo-9" value="&lt;font style=&quot;font-size: 20px;&quot;&gt;&lt;b&gt;4&lt;/b&gt;&lt;/font&gt;" style="text;html=1;align=center;verticalAlign=middle;whiteSpace=wrap;rounded=0;" vertex="1" parent="1">
          <mxGeometry x="747" y="365" width="20" height="30" as="geometry" />
        </mxCell>
        <mxCell id="fMIuDNtwgzvvr6yJABfo-10" value="&lt;font style=&quot;font-size: 20px;&quot;&gt;&lt;b&gt;4&lt;/b&gt;&lt;/font&gt;" style="text;html=1;align=center;verticalAlign=middle;whiteSpace=wrap;rounded=0;" vertex="1" parent="1">
          <mxGeometry x="350" y="50" width="20" height="30" as="geometry" />
        </mxCell>
        <mxCell id="fMIuDNtwgzvvr6yJABfo-11" value="&lt;span style=&quot;font-size: 20px;&quot;&gt;&lt;b&gt;7&lt;/b&gt;&lt;/span&gt;" style="text;html=1;align=center;verticalAlign=middle;whiteSpace=wrap;rounded=0;" vertex="1" parent="1">
          <mxGeometry x="180" y="130" width="20" height="30" as="geometry" />
        </mxCell>
        <mxCell id="fMIuDNtwgzvvr6yJABfo-13" value="&lt;span style=&quot;font-size: 20px;&quot;&gt;&lt;b&gt;3&lt;/b&gt;&lt;/span&gt;" style="text;html=1;align=center;verticalAlign=middle;whiteSpace=wrap;rounded=0;" vertex="1" parent="1">
          <mxGeometry x="434.5" y="542.5" width="20" height="30" as="geometry" />
        </mxCell>
        <mxCell id="fMIuDNtwgzvvr6yJABfo-14" value="&lt;font style=&quot;font-size: 20px;&quot;&gt;&lt;b&gt;4&lt;/b&gt;&lt;/font&gt;" style="text;html=1;align=center;verticalAlign=middle;whiteSpace=wrap;rounded=0;" vertex="1" parent="1">
          <mxGeometry x="422" y="377.5" width="20" height="30" as="geometry" />
        </mxCell>
        <mxCell id="fMIuDNtwgzvvr6yJABfo-15" value="&lt;span style=&quot;font-size: 20px;&quot;&gt;&lt;b&gt;7&lt;/b&gt;&lt;/span&gt;" style="text;html=1;align=center;verticalAlign=middle;whiteSpace=wrap;rounded=0;" vertex="1" parent="1">
          <mxGeometry x="574" y="310" width="20" height="30" as="geometry" />
        </mxCell>
        <mxCell id="fMIuDNtwgzvvr6yJABfo-16" value="&lt;span style=&quot;font-size: 20px;&quot;&gt;&lt;b&gt;5&lt;/b&gt;&lt;/span&gt;" style="text;html=1;align=center;verticalAlign=middle;whiteSpace=wrap;rounded=0;" vertex="1" parent="1">
          <mxGeometry x="120" y="329" width="20" height="30" as="geometry" />
        </mxCell>
        <mxCell id="fMIuDNtwgzvvr6yJABfo-17" value="&lt;span style=&quot;font-size: 20px;&quot;&gt;&lt;b&gt;3&lt;/b&gt;&lt;/span&gt;" style="text;html=1;align=center;verticalAlign=middle;whiteSpace=wrap;rounded=0;" vertex="1" parent="1">
          <mxGeometry x="210" y="510" width="20" height="30" as="geometry" />
        </mxCell>
        <mxCell id="fMIuDNtwgzvvr6yJABfo-20" value="&lt;span style=&quot;font-size: 20px;&quot;&gt;&lt;b&gt;3&lt;/b&gt;&lt;/span&gt;" style="text;html=1;align=center;verticalAlign=middle;whiteSpace=wrap;rounded=0;" vertex="1" parent="1">
          <mxGeometry x="749.5" y="540" width="20" height="30" as="geometry" />
        </mxCell>
        <mxCell id="fMIuDNtwgzvvr6yJABfo-21" value="" style="edgeStyle=segmentEdgeStyle;endArrow=classic;html=1;curved=0;rounded=0;endSize=8;startSize=8;exitX=0;exitY=0.5;exitDx=0;exitDy=0;" edge="1" parent="1">
          <mxGeometry width="50" height="50" relative="1" as="geometry">
            <mxPoint x="337" y="510" as="sourcePoint" />
            <mxPoint x="307" y="560" as="targetPoint" />
          </mxGeometry>
        </mxCell>
        <mxCell id="fMIuDNtwgzvvr6yJABfo-22" value="" style="edgeStyle=segmentEdgeStyle;endArrow=classic;html=1;curved=0;rounded=0;endSize=8;startSize=8;exitX=0;exitY=0.5;exitDx=0;exitDy=0;" edge="1" parent="1" target="fMIuDNtwgzvvr6yJABfo-5">
          <mxGeometry width="50" height="50" relative="1" as="geometry">
            <mxPoint x="657" y="515" as="sourcePoint" />
            <mxPoint x="627" y="565" as="targetPoint" />
            <Array as="points">
              <mxPoint x="657" y="520" />
              <mxPoint x="607" y="520" />
            </Array>
          </mxGeometry>
        </mxCell>
      </root>
    </mxGraphModel>
  </diagram>
</mxfile>
